 http://www.imdb.com/title/tt1708459/

Call Me Mrs.Miracle 2010 DvdRip H264
Drama | Fantasy  

Running Time	88 minutes
Completion Year	2010
Release Date	October 11, 2011

Posing as an unassuming toy department clerk, Mrs. Miracle (Doris Roberts) gets to work at making Christmas meaningful for the residents of a New York-based mom-and-pop store that has fallen on hard times.









Director: Michael Scott
Writers: Nancey Silvers (teleplay), Debbie Macomber (book)
Stars: Doris Roberts, Jewel Staite and Eric Johnson


Call Me Mrs.Miracle 2010 DvdRip H264.AVI

Format                                   : AVI
Format/Info                              : Audio Video Interleave
File size                                : 534 MiB
Duration                                 : 1h 27mn
Overall bit rate                         : 849 Kbps

Video
ID                                       : 0
Format                                   : AVC
Format/Info                              : Advanced Video Codec
Format profile                           : Main@L4.0
Format settings, CABAC                   : Yes
Format settings, ReFrames                : 2 frames
Codec ID                                 : H264
Duration                                 : 1h 27mn
Bit rate                                 : 41.1 Kbps
Width                                    : 720 pixels
Height                                   : 400 pixels
Display aspect ratio                     : 16:9
Frame rate                               : 29.970 fps
Color space                              : YUV
Chroma subsampling                       : 4:2:0
Bit depth                                : 8 bits
Scan type                                : Progressive
Bits/(Pixel*Frame)                       : 0.005
Stream size                              : 25.8 MiB (5%)

Audio
ID                                       : 1
Format                                   : MPEG Audio
Codec ID                                 : 55
Codec ID/Hint                            : MP3
Duration                                 : 1h 27mn
Bit rate                                 : 192 Kbps
Channel(s)                               : 2 channels
Sampling rate                            : 48.0 KHz
Compression mode                         : Lossy
Stream size                              : 121 MiB (23%)
Alignment                                : Aligned on interleaves



